<svg width="254" height="46" viewBox="0 0 254 46" fill="none" xmlns="http://www.w3.org/2000/svg">
<g clip-path="url(#clip0_3_2825)">
<path d="M44.2157 9.60692C39.1545 3.27136 32.5174 0.1535 24.4055 -8.8972e-05C21.7501 -0.0341538 19.1053 0.338879 16.5653 1.10575C13.6103 1.96129 10.8591 3.39524 8.47494 5.32254C6.09073 7.24984 4.12209 9.63124 2.68578 12.3254C2.36524 12.9124 2.0801 13.5175 1.83189 14.1378C0.283908 17.8636 -0.297816 21.9132 0.139647 25.9181C0.484106 29.2247 1.6611 32.3931 3.56296 35.1335C6.79251 39.9685 11.6855 43.4802 17.3338 45.0169C21.8132 46.3417 26.5864 46.3417 31.0658 45.0169C36.5198 43.4301 41.2852 40.0936 44.6116 35.5328C47.9234 31.2686 49.4092 25.8879 48.749 20.5502C48.3198 16.5504 46.7472 12.7544 44.2157 9.60692ZM43.1833 35.7171C40.1677 39.6991 35.9347 42.613 31.1124 44.0263C28.6987 44.753 26.1824 45.0901 23.6603 45.0246C21.4571 44.985 19.2702 44.6413 17.163 44.0032C14.1146 43.1197 11.2859 41.6171 8.85732 39.5914C6.42878 37.5657 4.45379 35.0614 3.05839 32.2383C1.35336 28.8915 0.607049 25.1468 0.900384 21.4103C1.02988 18.8906 1.6631 16.4214 2.76341 14.1455C4.09812 11.2935 6.01461 8.74543 8.39247 6.66132C10.7703 4.5772 13.5582 3.0021 16.5808 2.03496C19.3568 1.09394 22.291 0.694906 25.2206 0.860007C32.8512 1.32078 39.0225 4.50775 43.5559 10.659C43.7732 10.9508 43.7422 11.0967 43.4394 11.2964C42.7874 11.7265 42.8029 11.7418 42.3294 11.1044C39.5312 7.26586 35.5312 4.44777 30.9494 3.08705C29.2186 2.57242 27.4351 2.25045 25.632 2.12712C25.3671 2.1196 25.1033 2.16396 24.8558 2.25767C21.9867 3.21375 19.3895 4.83281 17.2795 6.98054C14.4367 9.8332 12.4345 13.3991 11.4886 17.2941C11.0543 18.9242 10.8197 20.6001 10.7899 22.2857C10.5665 28.049 12.6118 33.6733 16.4954 37.9749C18.793 40.6316 21.8133 42.58 25.1973 43.5886C25.8794 43.7426 26.5878 43.7426 27.2699 43.5886C30.302 43.2113 33.2215 42.2135 35.8423 40.6586C38.4632 39.1038 40.728 37.0259 42.4924 34.5575C42.6476 34.3425 42.7563 34.3194 42.9737 34.473C43.7422 35.0336 43.7422 35.0183 43.1833 35.7478V35.7171ZM40.4819 15.7044C40.4617 16.211 40.243 16.6899 39.8721 17.0397C39.5011 17.3894 39.0071 17.5826 38.4946 17.5782C38.2371 17.5843 37.9809 17.54 37.7407 17.4479C37.5005 17.3558 37.281 17.2177 37.0949 17.0414C36.9088 16.8652 36.7598 16.6543 36.6563 16.4209C36.5528 16.1875 36.4969 15.9362 36.4919 15.6814C36.5141 15.1796 36.735 14.7066 37.1068 14.3646C37.4787 14.0226 37.9716 13.8391 38.4791 13.8537C38.9926 13.8371 39.4917 14.0226 39.8672 14.3695C40.2426 14.7165 40.4637 15.1965 40.4819 15.7044ZM29.8005 15.7044C29.7744 16.2103 29.5496 16.686 29.174 17.0303C28.7985 17.3746 28.3019 17.5602 27.79 17.5475C27.2811 17.558 26.7882 17.371 26.4168 17.0266C26.0454 16.6821 25.825 16.2076 25.8028 15.7044C25.815 15.1917 26.03 14.7043 26.4016 14.3467C26.7731 13.9892 27.2717 13.7901 27.79 13.7922C28.3101 13.7918 28.81 13.9908 29.1849 14.3474C29.5598 14.7039 29.7805 15.1903 29.8005 15.7044ZM19.1735 15.7044C19.1514 16.2185 18.9239 16.7029 18.5412 17.0513C18.1585 17.3997 17.6517 17.5837 17.132 17.5628C16.8712 17.5756 16.6106 17.535 16.3663 17.4437C16.1221 17.3525 15.8994 17.2124 15.7123 17.0323C15.5251 16.8522 15.3775 16.6359 15.2785 16.3969C15.1795 16.1578 15.1313 15.9012 15.137 15.643C15.1466 15.389 15.2082 15.1395 15.3179 14.9096C15.4277 14.6798 15.5834 14.4744 15.7757 14.3057C15.9679 14.137 16.1927 14.0087 16.4365 13.9283C16.6803 13.848 16.938 13.8174 17.1941 13.8383C17.4482 13.8312 17.7012 13.8739 17.9386 13.964C18.1759 14.0541 18.3928 14.1898 18.5769 14.3633C18.7609 14.5368 18.9084 14.7446 19.0108 14.9748C19.1132 15.205 19.1685 15.453 19.1735 15.7044ZM44.3321 23.4453C43.975 23.9675 43.5559 23.9752 43.2531 23.4453C42.6282 22.3069 41.9227 21.2137 41.1417 20.1739C41.1417 20.1201 41.0718 20.0664 41.033 20.0203C40.9942 19.9742 40.8234 19.7745 40.6449 19.8283C40.4664 19.882 40.4974 20.0664 40.4974 20.2123V30.8867C40.5124 31.0374 40.5124 31.1891 40.4974 31.3398C40.4667 31.5596 40.3542 31.7601 40.1819 31.9021C40.0096 32.0442 39.7899 32.1175 39.5659 32.1078C39.3451 32.0775 39.1435 31.9673 39.0002 31.7985C38.8568 31.6297 38.7818 31.4143 38.7896 31.1939C38.7896 29.5658 38.7896 27.9455 38.7896 26.3251V26.0256C38.7896 25.8336 38.7896 25.6416 38.5179 25.657C38.2463 25.6724 38.2695 25.8336 38.2695 26.0103C38.2695 26.1869 38.2695 26.2637 38.2695 26.3942C38.2695 27.9916 38.2695 29.5812 38.2695 31.1785C38.2803 31.3639 38.2313 31.5479 38.1294 31.7039C38.0275 31.8599 37.8782 31.9798 37.7029 32.0463C37.5486 32.1065 37.3797 32.1197 37.2178 32.0841C37.056 32.0485 36.9086 31.9658 36.7946 31.8467C36.6932 31.7485 36.6181 31.6269 36.576 31.4928C36.534 31.3587 36.5265 31.2164 36.554 31.0787V20.458C36.5618 20.3455 36.5618 20.2326 36.554 20.1201C36.554 19.9819 36.554 19.8283 36.3599 19.7822C36.1659 19.7361 36.1271 19.859 36.0417 19.9512C35.4785 20.6339 34.9723 21.3607 34.528 22.1244C34.2718 22.5545 34.0312 22.9999 33.7517 23.43C33.4722 23.86 32.9754 23.9598 32.6649 23.43C32.3544 22.9001 32.0206 22.3241 31.6869 21.7712C31.3255 21.1397 30.8876 20.5543 30.3827 20.028C30.2663 19.9128 30.1731 19.7438 29.9713 19.8206C29.7695 19.8974 29.8394 20.0664 29.8394 20.2123V30.1956C29.8394 30.5104 29.8394 30.8253 29.8394 31.1401C29.8478 31.2631 29.8312 31.3864 29.7905 31.5029C29.7499 31.6193 29.6861 31.7265 29.6029 31.8182C29.5197 31.9098 29.4187 31.984 29.306 32.0364C29.1933 32.0888 29.0711 32.1183 28.9467 32.1231C28.8231 32.1145 28.7025 32.0814 28.5921 32.0257C28.4818 31.9701 28.3838 31.893 28.3041 31.7992C28.2245 31.7053 28.1647 31.5966 28.1284 31.4794C28.0921 31.3622 28.08 31.239 28.0928 31.1171V26.064C28.0928 25.8797 28.0928 25.6724 27.8444 25.6724C27.596 25.6724 27.5804 25.8874 27.5727 26.0794V26.3021C27.5727 27.838 27.5727 29.3739 27.5727 30.9098V31.0633C27.5844 31.1855 27.5709 31.3087 27.533 31.4255C27.4952 31.5423 27.4337 31.6503 27.3524 31.7429C27.2712 31.8355 27.1717 31.9108 27.0601 31.9643C26.9485 32.0178 26.8271 32.0483 26.7033 32.054C26.1909 32.054 25.8571 31.6547 25.8571 31.0557C25.8571 27.4719 25.8571 23.9138 25.8571 20.3812C25.8571 20.1662 25.9503 19.8744 25.6864 19.7745C25.4224 19.6747 25.306 19.9665 25.1663 20.1355C24.4475 21.0779 23.8039 22.0741 23.2411 23.1151C23.1713 23.238 23.1014 23.3608 23.0238 23.476C22.9802 23.569 22.9106 23.6477 22.8233 23.7029C22.7359 23.7581 22.6345 23.7874 22.5309 23.7874C22.4272 23.7874 22.3258 23.7581 22.2385 23.7029C22.1511 23.6477 22.0815 23.569 22.0379 23.476C21.7507 23.0229 21.4868 22.5468 21.2151 22.0784C20.7937 21.3603 20.3216 20.6726 19.8023 20.0203C19.6936 19.8897 19.585 19.7054 19.3754 19.7822C19.1658 19.859 19.2356 20.051 19.2356 20.2046C19.2356 23.7269 19.2356 27.2467 19.2356 30.7638C19.2552 30.9528 19.2552 31.1432 19.2356 31.3321C19.1977 31.5443 19.0814 31.735 18.9092 31.867C18.737 31.9991 18.5213 32.063 18.3041 32.0463C18.0888 32.0166 17.8915 31.9109 17.7488 31.7485C17.6062 31.5862 17.5277 31.3783 17.5279 31.1632C17.5279 30.7638 17.5279 30.3952 17.5279 29.9575V26.0333C17.5279 25.8413 17.5279 25.6109 17.2872 25.6032C17.0466 25.5956 17.0155 25.8413 17.0155 26.0487C17.0155 27.7305 17.0155 29.4123 17.0155 31.1017C17.0122 31.2893 16.953 31.4717 16.8453 31.6261C16.7376 31.7805 16.5862 31.9 16.4101 31.9695C16.272 32.0386 16.1161 32.0653 15.9626 32.0461C15.8091 32.027 15.6648 31.9629 15.5484 31.862C15.4302 31.7737 15.3373 31.6564 15.2788 31.5217C15.2202 31.3871 15.1981 31.2397 15.2146 31.0941C15.2146 30.0189 15.2146 28.9361 15.2146 27.8533C15.2146 25.3242 15.2146 22.7977 15.2146 20.2737C15.2226 20.1868 15.2226 20.0995 15.2146 20.0126C15.1525 19.7054 14.9895 19.6517 14.7644 19.859C14.6326 19.9963 14.5107 20.1426 14.3995 20.2967C13.6882 21.2809 13.0375 22.3067 12.4511 23.3685C12.3347 23.5682 12.2027 23.7602 11.9388 23.7679C11.8359 23.7787 11.732 23.7598 11.6397 23.7135C11.5474 23.6671 11.4706 23.5953 11.4187 23.5068C11.3543 23.4127 11.3199 23.3017 11.3199 23.1881C11.3199 23.0744 11.3543 22.9634 11.4187 22.8694C12.0074 21.9749 12.5464 21.0495 13.0333 20.0971C13.2804 19.51 13.6958 19.0074 14.2282 18.6512C14.7607 18.295 15.387 18.1009 16.0297 18.0927C17.2333 17.9408 18.4555 18.0296 19.6238 18.3538C19.9182 18.4541 20.1897 18.6109 20.4229 18.8151C20.656 19.0194 20.846 19.2671 20.9822 19.5441C21.4557 20.3889 21.9525 21.2183 22.4261 22.04C22.5658 22.04 22.5891 21.9709 22.6201 21.9094C23.148 21.0109 23.6836 20.1124 24.1727 19.2062C24.349 18.913 24.6237 18.6902 24.9489 18.5765C26.1924 18.0763 27.5473 17.9094 28.8768 18.0927C29.4841 18.1585 30.0795 18.3058 30.6467 18.5305C31.0484 18.698 31.3781 18.9997 31.5782 19.3829C32.0517 20.2046 32.533 21.0109 32.9987 21.8326C33.1307 22.0553 33.2083 22.1245 33.3636 21.8326C33.8526 20.9649 34.3727 20.1124 34.8618 19.2523C35.0142 18.9735 35.2501 18.7482 35.5371 18.6073C36.1195 18.319 36.7515 18.1418 37.4001 18.085C38.6768 17.9048 39.9787 18.0421 41.1883 18.4844C41.6176 18.6516 41.9726 18.9647 42.1897 19.3675L44.3399 23.0997C44.5417 23.2226 44.5417 23.3301 44.3321 23.43V23.4453Z" fill="#27B9E9"/>
<path d="M223.478 7.11888C222.841 7.11888 222.204 7.11888 221.576 7.11888C221.257 7.11888 221.172 7.19567 221.172 7.51053C221.172 10.869 221.172 14.2249 221.172 17.5783V20.6501C220.838 20.2422 220.461 19.8714 220.046 19.5443C219.342 18.9996 218.532 18.604 217.667 18.382C216.802 18.1601 215.899 18.1165 215.016 18.2541C213.764 18.371 212.566 18.8153 211.544 19.5413C210.522 20.2673 209.714 21.2489 209.202 22.3857C208.549 23.8299 208.308 25.4232 208.503 26.9933C208.607 28.682 209.249 30.2948 210.335 31.601C212.835 34.5192 218.098 35.195 220.994 31.7623C221.04 31.7085 221.071 31.6164 221.18 31.6778C221.18 32.2384 221.18 32.8067 221.18 33.3673C221.18 33.59 221.25 33.6514 221.467 33.6437C222.065 33.6437 222.662 33.6437 223.26 33.6437C223.858 33.6437 223.835 33.7436 223.835 33.0908C223.835 24.6281 223.835 16.1806 223.835 7.74859C223.831 7.68466 223.831 7.62054 223.835 7.5566C223.873 7.21103 223.78 7.10352 223.478 7.11888ZM219.48 30.5489C218.894 31.0541 218.195 31.4133 217.441 31.5964C216.686 31.7796 215.898 31.7814 215.143 31.6017C214.388 31.422 213.687 31.0661 213.099 30.5636C212.511 30.0612 212.053 29.4268 211.764 28.7135C211.093 27.0883 211.068 25.2724 211.694 23.6297C212.02 22.7013 212.634 21.8982 213.447 21.3344C214.261 20.7706 215.234 20.4747 216.227 20.4888C217.232 20.4817 218.216 20.7767 219.047 21.3349C219.879 21.893 220.52 22.6879 220.885 23.6144C221.02 23.9526 221.124 24.3021 221.195 24.6588C221.289 25.1655 221.336 25.6796 221.335 26.1947C221.35 27.0084 221.193 27.8162 220.873 28.5661C220.554 29.3161 220.079 29.9915 219.48 30.5489Z" fill="#27B9E9"/>
<path d="M126.919 18.6918C125.594 18.1283 124.124 17.9889 122.715 18.2933C121.307 18.5976 120.029 19.3304 119.063 20.389C119.016 20.4427 118.985 20.5272 118.861 20.5042C118.861 19.9743 118.861 19.4367 118.861 18.8992C118.861 18.615 118.814 18.4998 118.496 18.5152C117.898 18.5152 117.301 18.5152 116.703 18.5152C116.105 18.5152 116.206 18.5152 116.206 18.9913V40.7165C116.206 41.0314 116.206 41.3462 116.206 41.6611C116.206 41.976 116.284 41.9683 116.517 41.9606C117.192 41.9606 117.867 41.9606 118.543 41.9606C118.822 41.9606 118.876 41.8685 118.869 41.615C118.869 40.6321 118.869 39.6568 118.869 38.6738V31.5242L119.234 31.9159C119.35 32.0387 119.459 32.1616 119.583 32.2691C120.292 32.9339 121.142 33.4334 122.072 33.7311C123.001 34.0287 123.986 34.1169 124.955 33.9893C125.904 33.9314 126.831 33.6733 127.672 33.2323C128.512 32.7912 129.248 32.1774 129.83 31.4321C130.584 30.4552 131.114 29.3271 131.382 28.1268C131.65 26.9264 131.65 25.6826 131.382 24.4821C130.916 21.8481 129.573 19.7439 126.919 18.6918ZM128.3 28.8364C127.893 29.744 127.213 30.506 126.354 31.0196C125.495 31.5332 124.497 31.7737 123.495 31.7085C122.464 31.6563 121.477 31.2827 120.674 30.6413C119.87 29.9998 119.293 29.1234 119.024 28.1376C118.678 27.1596 118.588 26.1109 118.761 25.0892C118.935 24.0674 119.367 23.1057 120.018 22.2935C120.423 21.7869 120.929 21.3677 121.504 21.0616C122.079 20.7555 122.712 20.5691 123.362 20.5137C124.013 20.4583 124.668 20.5352 125.288 20.7396C125.907 20.9439 126.478 21.2715 126.965 21.7022C127.573 22.2368 128.057 22.8951 128.384 23.6321C128.711 24.3691 128.873 25.1673 128.859 25.972C128.881 26.9552 128.69 27.9318 128.3 28.8364Z" fill="#27B9E9"/>
<path d="M75.9182 29.8808V28.3449C74.9366 29.3408 73.7631 30.1318 72.4672 30.6713C71.1712 31.2108 69.779 31.4877 68.373 31.4858C66.9807 31.4937 65.6029 31.2065 64.3322 30.6435C63.0615 30.0805 61.9274 29.2549 61.0063 28.222C57.6373 24.5973 57.8314 18.3462 61.2237 14.6063C64.3287 11.1966 70.9347 9.88346 75.9182 14.6908C75.9182 13.6003 75.9182 12.5866 75.9182 11.5729C75.9182 11.381 75.8096 11.3042 75.6854 11.212C75.0316 10.7382 74.3291 10.3341 73.5895 10.0063C71.2667 9.00067 68.6919 8.70903 66.1995 9.16927C64.4854 9.43329 62.8458 10.0476 61.385 10.9732C59.9242 11.8987 58.6743 13.1151 57.715 14.5449C56.544 16.2568 55.8603 18.2489 55.7355 20.3122C55.5419 21.9309 55.6814 23.5716 56.1456 25.1355C56.6099 26.6994 57.3893 28.1543 58.4369 29.4123C58.9415 30.0305 59.5028 30.6012 60.1136 31.1172C61.5113 32.2687 63.1418 33.1112 64.8957 33.588C66.6496 34.0648 68.4863 34.165 70.2826 33.8818C72.1926 33.624 74.0158 32.9299 75.6077 31.8544C75.7022 31.8055 75.7794 31.7294 75.8293 31.6362C75.8792 31.543 75.8994 31.437 75.8872 31.3322C75.9183 30.8561 75.9182 30.3646 75.9182 29.8808Z" fill="#27B9E9"/>
<path d="M154.157 28.391C148.817 33.3212 142.451 31.6701 139.277 28.2143C135.846 24.4744 136.024 18.1926 139.634 14.4758C143.104 10.9048 149.399 10.1215 154.157 14.6755C154.157 13.5773 154.157 12.5482 154.157 11.5192C154.157 11.3502 154.041 11.2811 153.932 11.1967C153.125 10.6037 152.24 10.1231 151.301 9.76827C149.584 9.13982 147.753 8.87326 145.925 8.98566C144.098 9.09807 142.315 9.58698 140.689 10.421C138.927 11.2657 137.424 12.5592 136.335 14.1686C135.362 15.5351 134.674 17.0796 134.312 18.712C133.949 20.3443 133.919 22.0318 134.223 23.6758C134.488 25.6849 135.278 27.5911 136.514 29.2069C137.75 30.8227 139.389 32.0924 141.272 32.8911C143.259 33.7886 145.443 34.1768 147.621 34.02C149.879 33.8729 152.055 33.1305 153.925 31.8698C154.004 31.8228 154.069 31.7548 154.111 31.6733C154.154 31.5919 154.173 31.5004 154.165 31.409C154.165 30.8023 154.165 30.1956 154.165 29.5966L154.157 28.391Z" fill="#27B9E9"/>
<path d="M204.964 18.5152C204.853 18.4994 204.741 18.5233 204.647 18.5825C204.553 18.6417 204.484 18.7322 204.451 18.8377C203.416 21.2132 202.366 23.5836 201.3 25.9489C200.896 26.8628 200.523 27.7689 200.05 28.7596C198.443 24.9199 196.945 21.1492 195.222 17.394C193.63 21.2337 192.054 24.9429 190.463 28.7519C190.362 28.5446 190.3 28.4063 190.238 28.2681C188.851 25.1246 187.467 21.9812 186.085 18.8377C186.054 18.7328 185.986 18.6424 185.894 18.5832C185.801 18.5239 185.69 18.4998 185.58 18.5152C184.804 18.5152 184.074 18.5152 183.329 18.5152C183.236 18.5152 183.127 18.4614 183.034 18.5843C185.511 23.9062 187.987 29.2434 190.494 34.6421L195.152 23.4224C196.852 27.1239 198.35 30.8638 199.941 34.6421L207.51 18.5152C206.64 18.5229 205.802 18.5382 204.964 18.5152Z" fill="#27B9E9"/>
<path d="M104.958 18.1619C100.386 18.1619 96.7918 21.3566 96.7763 26.0871C96.7608 30.8177 100.355 34.0047 104.919 34.0431C105.986 34.087 107.051 33.9125 108.047 33.5307C109.043 33.1489 109.948 32.5678 110.707 31.824C111.465 31.0801 112.06 30.1894 112.455 29.2075C112.85 28.2257 113.035 27.1739 113 26.1179C113.039 25.0627 112.858 24.0108 112.468 23.028C112.077 22.0453 111.486 21.1527 110.732 20.406C109.977 19.6594 109.075 19.0748 108.081 18.6886C107.088 18.3025 106.025 18.1232 104.958 18.1619ZM110.268 26.7322C110.239 27.476 110.047 28.2047 109.705 28.8677C109.364 29.5308 108.88 30.1123 108.288 30.572C107.536 31.172 106.632 31.5571 105.674 31.6857C104.716 31.8143 103.741 31.6814 102.854 31.3015C102.004 30.982 101.258 30.4379 100.699 29.7284C100.139 29.019 99.7863 28.1712 99.6795 27.2775C99.501 27.2314 99.5475 27.0855 99.5553 26.9626C99.4855 26.3887 99.4855 25.8086 99.5553 25.2347C99.5553 25.1042 99.5087 24.9659 99.6873 24.9199C99.778 24.2498 100.001 23.604 100.345 23.0195C100.688 22.4351 101.145 21.9234 101.689 21.5139C102.233 21.1044 102.853 20.8051 103.514 20.6332C104.175 20.4612 104.863 20.42 105.54 20.5119C108.847 20.8805 110.539 23.5913 110.268 26.7322Z" fill="#27B9E9"/>
<path d="M173.96 18.1619C169.426 18.1619 165.778 21.2337 165.778 26.1179C165.778 31.002 169.326 33.9893 173.921 34.0431C174.987 34.0822 176.05 33.9049 177.044 33.5221C178.038 33.1392 178.942 32.559 179.701 31.8171C180.459 31.0753 181.056 30.1875 181.455 29.2086C181.853 28.2297 182.045 27.1805 182.017 26.1255C182.051 25.0701 181.865 24.0192 181.472 23.0375C181.079 22.0558 180.486 21.1643 179.731 20.418C178.976 19.6717 178.075 19.0865 177.082 18.6985C176.089 18.3104 175.027 18.1278 173.96 18.1619ZM177.74 30.1957C177.085 30.8187 176.283 31.2692 175.406 31.5061C174.53 31.7429 173.607 31.7586 172.723 31.5515C171.839 31.3445 171.021 30.9214 170.345 30.321C169.669 29.7205 169.155 28.9619 168.852 28.1145C168.492 26.9899 168.422 25.7938 168.65 24.6357C168.65 24.5205 168.65 24.4284 168.79 24.3977C169.042 23.3526 169.627 22.4153 170.459 21.724C171.291 21.0327 172.325 20.6239 173.409 20.5579C174.432 20.4284 175.472 20.605 176.393 21.0648C177.314 21.5247 178.076 22.2468 178.579 23.1382C179.169 24.2624 179.405 25.5361 179.255 26.7944C179.106 28.0526 178.578 29.2375 177.74 30.1957Z" fill="#27B9E9"/>
<path d="M86.5686 18.1543C81.8567 18.1543 78.3868 21.4641 78.3713 26.0104C78.3298 27.0772 78.5117 28.1411 78.9055 29.1351C79.2992 30.1292 79.8964 31.032 80.6595 31.787C81.4227 32.5419 82.3353 33.1327 83.3401 33.5223C84.3449 33.9118 85.4203 34.0918 86.4987 34.0508C87.5637 34.0887 88.6253 33.9109 89.6183 33.5281C90.6113 33.1453 91.5147 32.5658 92.2729 31.825C93.0312 31.0841 93.6284 30.1978 94.0277 29.2203C94.427 28.2428 94.6201 27.1949 94.5951 26.1409C94.6304 25.0865 94.4473 24.0362 94.0571 23.0544C93.6668 22.0727 93.0777 21.1803 92.3258 20.4322C91.574 19.6841 90.6754 19.0961 89.6853 18.7043C88.6952 18.3126 87.6345 18.1254 86.5686 18.1543ZM89.0526 31.1095C88.2565 31.5409 87.3629 31.7653 86.4553 31.7619C85.5477 31.7584 84.6558 31.5272 83.8631 31.0898C83.0704 30.6525 82.4029 30.0233 81.923 29.2611C81.4431 28.499 81.1666 27.6289 81.1192 26.7322C80.9572 25.3049 81.315 23.8672 82.1284 22.6775C82.7633 21.8028 83.6516 21.1392 84.6759 20.7745C85.7001 20.4098 86.8121 20.361 87.8649 20.6347C88.8456 20.8586 89.7375 21.3645 90.4281 22.0887C91.1188 22.813 91.5774 23.7232 91.7462 24.7048C91.8421 25.1751 91.8915 25.6535 91.8937 26.1332C91.8316 28.2835 91.0864 30.0805 89.0526 31.1095Z" fill="#27B9E9"/>
<path d="M165.964 18.6995C164.474 18.0314 162.968 17.8624 161.493 18.9222C161.045 19.2594 160.652 19.6636 160.329 20.1202C160.329 19.621 160.329 19.214 160.329 18.807C160.329 18.5997 160.282 18.5152 160.057 18.5229C159.358 18.5229 158.66 18.5229 157.961 18.5229C157.705 18.5229 157.666 18.6227 157.666 18.8377C157.666 23.6604 157.666 28.4857 157.666 33.3135C157.666 33.5439 157.728 33.6207 157.969 33.613C158.605 33.613 159.242 33.613 159.871 33.613C160.236 33.613 160.336 33.5362 160.336 33.1676C160.336 30.5105 160.336 27.8611 160.336 25.2117C160.32 24.2929 160.454 23.3774 160.732 22.5008C160.863 22.021 161.136 21.5905 161.514 21.2637C161.893 20.937 162.361 20.7288 162.859 20.6655C163.48 20.5607 164.119 20.6777 164.66 20.9957C164.8 21.0801 164.909 21.1493 165.017 20.9342C165.351 20.2738 165.708 19.621 166.058 18.9683C166.081 18.8454 166.096 18.7763 165.964 18.6995Z" fill="#27B9E9"/>
<path d="M44.3322 23.1229C44.3661 23.167 44.3846 23.221 44.3846 23.2765C44.3846 23.3319 44.3661 23.3859 44.3322 23.43C44.5417 23.3302 44.5417 23.2227 44.3322 23.1229Z" fill="#5ECBEE"/>
<path d="M44.3322 23.1229V23.43C44.3661 23.3859 44.3846 23.3319 44.3846 23.2765C44.3846 23.221 44.3661 23.167 44.3322 23.1229Z" fill="#5ECBEE"/>
<path d="M168.65 24.6357C168.72 24.5743 168.728 24.4668 168.79 24.3977C168.65 24.4284 168.627 24.5205 168.65 24.6357Z" fill="#9ADEF4"/>
<path d="M168.79 24.3977C168.728 24.4668 168.72 24.5743 168.65 24.6357C168.79 24.6127 168.813 24.5205 168.79 24.3977Z" fill="#9ADEF4"/>
<path d="M11.8379 33.2674C10.4173 30.3393 9.62442 27.1521 9.50912 23.9062C9.50912 23.6451 9.42373 23.5606 9.15981 23.5606C8.05752 23.5606 6.94747 23.5606 5.84518 23.5606C4.74289 23.5606 3.5785 23.5606 2.44516 23.5606C2.20452 23.5606 2.11137 23.6144 2.12689 23.8755C2.2337 25.576 2.5491 27.2573 3.06617 28.8825C4.05912 31.9031 5.70997 34.6714 7.90226 36.992C8.12738 37.2224 8.24382 37.2147 8.46894 36.992C9.54535 35.9425 10.6347 34.9032 11.737 33.8741C11.8294 33.8052 11.8914 33.7037 11.9102 33.5908C11.929 33.4778 11.9031 33.362 11.8379 33.2674Z" fill="#27B9E9"/>
<path d="M2.51514 22.3089C3.60967 22.3089 4.70419 22.3089 5.79872 22.3089H9.15993C9.41609 22.3089 9.50148 22.2398 9.50924 21.971C9.54177 20.7406 9.6794 19.5152 9.92066 18.3079C10.3031 16.3076 10.9504 14.3659 11.8458 12.5329C11.9234 12.3793 11.9545 12.2641 11.8458 12.1336C10.6917 11.038 9.53771 9.93725 8.38367 8.8314C8.23618 8.68549 8.14302 8.71621 8.01106 8.8314C5.57788 11.3796 3.79945 14.469 2.82564 17.8394C2.45157 19.1562 2.23532 20.512 2.18135 21.8788C2.11925 22.2167 2.17359 22.3165 2.51514 22.3089Z" fill="#28B9E8"/>
<path d="M16.1462 39.4571C14.8499 38.1614 13.7351 36.6995 12.8316 35.1105C12.6531 34.8033 12.5521 34.8187 12.3193 35.0414C11.3412 35.9937 10.3476 36.9382 9.35395 37.8674C9.13659 38.0748 9.12107 38.1823 9.35395 38.382C12.8424 41.3983 17.2122 43.2357 21.8284 43.627L21.58 43.5042C19.5711 42.4366 17.7387 41.0719 16.1462 39.4571Z" fill="#29B9E9"/>
<path d="M12.3115 10.8971C12.5211 11.0968 12.6142 11.0507 12.754 10.8204C13.9099 8.80174 15.3943 6.9855 17.1476 5.44473C18.2838 4.43593 19.516 3.53837 20.8271 2.7646L21.4714 2.38831C20.4608 2.44067 19.4589 2.60029 18.4828 2.86443C15.0992 3.6931 11.966 5.31271 9.34619 7.5873C9.20646 7.71017 9.02792 7.79465 9.26856 8.01735C10.2932 8.94657 11.3024 9.91418 12.3115 10.8971Z" fill="#29B9E9"/>
<path d="M235.929 9.22305V18.592H233.165V9.22305H229.851V6.82706H239.251V9.22305H235.929ZM243.194 11.7112C243.194 14.015 243.257 16.3803 243.257 18.6227H240.485V6.85778H243.28L247.223 13.7693C248.59 11.4655 249.956 9.16162 251.26 6.85778H253.992V18.592H251.198L251.26 11.8033L248.31 17.179H246.199L243.194 11.7112Z" fill="#1DBDEE"/>
</g>
<defs>
<clipPath id="clip0_3_2825">
<rect width="254" height="46" fill="white"/>
</clipPath>
</defs>
</svg>
