<svg width="1106" height="358" viewBox="0 0 1106 358" fill="none" xmlns="http://www.w3.org/2000/svg">
<g style="mix-blend-mode:multiply">
<rect width="1106" height="358" fill="#1DBDEE"/>
<g style="mix-blend-mode:multiply">
<path d="M163.537 247.838L149.032 269.796L132.514 294.81L90.7944 358H0V0.15918L163.537 247.838Z" fill="#F1F1F1"/>
<path d="M231.249 0H0V0.0795556H142.95L306.538 247.838L292.034 269.796L275.516 294.81L233.796 358H322.121L394.877 247.816L231.249 0Z" fill="#F1F1F1"/>
<path d="M292.034 269.796L306.538 247.838L142.95 0.0795898H0V0.159145L163.537 247.838L149.032 269.796L132.514 294.81L90.7944 358H233.796L275.516 294.81L292.034 269.796Z" fill="#E5E5E5"/>
<path d="M1106 0V358H644.399L480.771 110.184L553.539 0H1106Z" fill="#F1F1F1"/>
<path d="M671.588 232.245H611.439L530.808 110.116L566.666 55.814H626.801L590.957 110.116L671.588 232.245Z" fill="white"/>
<path d="M1074.34 303.698L1044.27 349.238L1038.53 357.92H978.386L1014.19 303.698L933.561 181.58H993.696L1074.34 303.698Z" fill="white"/>
<path d="M1038.53 357.92L1038.48 358H978.334L978.386 357.92H1038.53Z" fill="url(#paint0_linear_7_1800)"/>
<path d="M644.399 358H609.438L525.948 232.325H560.908L644.399 358Z" fill="white"/>
<path d="M922.085 55.8139H937.603L974.695 0H959.164L922.085 55.8139Z" fill="white"/>
</g>
</g>
<defs>
<linearGradient id="paint0_linear_7_1800" x1="978.334" y1="357.955" x2="1038.53" y2="357.955" gradientUnits="userSpaceOnUse">
<stop stop-color="#DC2531"/>
<stop offset="1" stop-color="#95132A"/>
</linearGradient>
</defs>
</svg>
